<?xml version="1.0" encoding="UTF-8" standalone="no"?>
<!DOCTYPE svg PUBLIC "-//W3C//DTD SVG 1.1//EN" "http://www.w3.org/Graphics/SVG/1.1/DTD/svg11.dtd">
<svg width="100%" height="100%" viewBox="0 0 37 36" version="1.1" xmlns="http://www.w3.org/2000/svg" xmlns:xlink="http://www.w3.org/1999/xlink" xml:space="preserve" xmlns:serif="http://www.serif.com/" style="fill-rule:evenodd;clip-rule:evenodd;stroke-linejoin:round;stroke-miterlimit:2;">
    <g transform="matrix(1,0,0,1,-23.2461,-78.1482)">
        <path d="M39.985,79.548C40.163,78.731 40.886,78.148 41.722,78.148C42.558,78.148 43.282,78.731 43.459,79.548L46.063,91.508L58.243,90.289C59.075,90.205 59.852,90.713 60.111,91.508C60.369,92.304 60.039,93.172 59.316,93.593L48.746,99.765L53.67,110.972C54.006,111.738 53.763,112.634 53.087,113.126C52.41,113.617 51.483,113.571 50.859,113.014L41.722,104.869L32.585,113.014C31.961,113.571 31.034,113.617 30.357,113.126C29.681,112.634 29.438,111.738 29.774,110.972L34.698,99.765L24.128,93.593C23.406,93.172 23.075,92.304 23.333,91.508C23.592,90.713 24.369,90.205 25.201,90.289L37.381,91.508L39.985,79.548Z" style="fill:rgb(216,187,43);"/>
    </g>
</svg>
