<?xml version="1.0" encoding="UTF-8" standalone="no"?>
<!DOCTYPE svg PUBLIC "-//W3C//DTD SVG 1.1//EN" "http://www.w3.org/Graphics/SVG/1.1/DTD/svg11.dtd">
<svg width="100%" height="100%" viewBox="0 0 189 165" version="1.1" xmlns="http://www.w3.org/2000/svg" xmlns:xlink="http://www.w3.org/1999/xlink" xml:space="preserve" xmlns:serif="http://www.serif.com/" style="fill-rule:evenodd;clip-rule:evenodd;stroke-linecap:round;stroke-linejoin:round;stroke-miterlimit:1.5;">
    <g transform="matrix(1,2.55441e-09,2.55441e-09,1,-3.671,-29.749)">
        <g>
            <path d="M139.479,39.363L192.277,29.749L168.29,77.755L139.479,39.363Z" style="fill:rgb(10,161,93);"/>
            <path d="M11.671,140.606L74.86,117.861C74.86,117.861 126.773,78.904 161.563,52.797" style="fill:none;stroke:rgb(10,161,93);stroke-width:16px;"/>
        </g>
    </g>
    <g transform="matrix(1,0,0,1,-3.67033,-29.7491)">
        <path d="M18.905,194.188L49.02,194.188L49.02,159.459C49.02,155.304 45.646,151.93 41.491,151.93L26.434,151.93C22.278,151.93 18.905,155.304 18.905,159.459L18.905,194.188ZM59.802,194.188L89.917,194.188L89.917,148.135C89.917,143.979 86.543,140.606 82.387,140.606L67.33,140.606C63.175,140.606 59.802,143.979 59.802,148.135L59.802,194.188ZM99.351,194.188L129.466,194.188L129.466,120.306C129.466,116.151 126.092,112.778 121.937,112.778L106.88,112.778C102.725,112.778 99.351,116.151 99.351,120.306L99.351,194.188ZM140.102,194.188L170.217,194.188L170.217,97.632C170.217,93.477 166.843,90.104 162.688,90.104L147.631,90.104C143.475,90.104 140.102,93.477 140.102,97.632L140.102,194.188Z" style="fill:rgb(97,120,225);"/>
    </g>
</svg>
