<?xml version="1.0" encoding="UTF-8" standalone="no"?>
<!DOCTYPE svg PUBLIC "-//W3C//DTD SVG 1.1//EN" "http://www.w3.org/Graphics/SVG/1.1/DTD/svg11.dtd">
<svg width="100%" height="100%" viewBox="0 0 278 264" version="1.1" xmlns="http://www.w3.org/2000/svg" xmlns:xlink="http://www.w3.org/1999/xlink" xml:space="preserve" xmlns:serif="http://www.serif.com/" style="fill-rule:evenodd;clip-rule:evenodd;stroke-linecap:round;stroke-linejoin:round;stroke-miterlimit:1.5;">
    <g transform="matrix(1,0,0,1,-407.803,-452.755)">
        <path d="M417.803,651.002C444.399,667.343 476.912,677.789 490.327,660.421C513.93,629.864 494.829,604.724 495.141,544.433C495.305,512.799 503.728,453.975 552.54,463.861C580.668,469.557 603.569,540.641 606.914,590.618C609.642,631.379 602.969,696.018 569.22,705.156C537.03,713.872 489.017,663.462 471.538,629.334C439.318,566.425 434.348,529.266 450.09,517.431C480.273,494.739 524.448,569.696 553.859,593.193C578.014,612.491 607.628,640.308 628.619,648.092C644.82,654.1 658.523,652.801 674.827,640.59" style="fill:none;stroke:rgb(10,161,93);stroke-width:20px;"/>
    </g>
</svg>
