<?xml version="1.0" encoding="UTF-8" standalone="no"?>
<!DOCTYPE svg PUBLIC "-//W3C//DTD SVG 1.1//EN" "http://www.w3.org/Graphics/SVG/1.1/DTD/svg11.dtd">
<svg width="100%" height="100%" viewBox="0 0 430 421" version="1.1" xmlns="http://www.w3.org/2000/svg" xmlns:xlink="http://www.w3.org/1999/xlink" xml:space="preserve" xmlns:serif="http://www.serif.com/" style="fill-rule:evenodd;clip-rule:evenodd;stroke-linecap:round;stroke-linejoin:round;stroke-miterlimit:1.5;">
    <g transform="matrix(1,0,0,1,72.9678,-310.865)">
        <path d="M-40.812,568.21C-3.629,543.287 32.578,497.726 33.92,465.958C35.261,434.189 8.514,386.148 -25.573,387.605C-74.97,389.717 -69.51,444.571 -28.682,456.808C-7.314,463.212 54.49,463.73 80.189,439.728C105.902,415.711 113.015,366.458 104.837,348C94.373,324.382 75.453,316.502 66.808,328.242C41.836,362.155 113.657,424.671 148.566,445.303C183.475,465.936 231.158,463.774 269.151,448.234C300.439,435.437 340.996,411.595 330.615,368.371C323.167,337.359 285.589,324.556 243.3,337.818C208.165,348.837 182.425,373.014 170.803,405.351C152.001,457.667 182.621,501.087 210.627,528.242C231.468,548.449 263.302,568.75 286.252,571.426C331.058,576.649 345.265,554.36 344.197,543.03C343.129,531.7 330.79,501.348 265.919,510.675C230.712,515.737 174.81,546.429 142.549,599.915C124.418,629.974 111.949,713.313 149.521,719.376C186.154,725.288 206.927,634.494 202.251,599.93C195.72,551.659 161.339,535.688 132.88,523.792C100.7,510.339 59.372,524.165 40.462,536.657C5.584,559.698 22.769,591.569 33.048,603.078C51.007,623.185 92.678,614.598 105.282,594.833C146.357,530.422 106.764,500.352 88.403,487.353C65.448,471.103 44.256,467.777 33.92,465.958" style="fill:none;stroke:rgb(216,113,43);stroke-width:24px;"/>
    </g>
</svg>
