<?xml version="1.0" encoding="UTF-8" standalone="no"?>
<!DOCTYPE svg PUBLIC "-//W3C//DTD SVG 1.1//EN" "http://www.w3.org/Graphics/SVG/1.1/DTD/svg11.dtd">
<svg width="100%" height="100%" viewBox="0 0 179 146" version="1.1" xmlns="http://www.w3.org/2000/svg" xmlns:xlink="http://www.w3.org/1999/xlink" xml:space="preserve" xmlns:serif="http://www.serif.com/" style="fill-rule:evenodd;clip-rule:evenodd;stroke-linecap:round;stroke-linejoin:round;stroke-miterlimit:1.5;">
    <g transform="matrix(1,0,0,1,-314.859,-125.86)">
        <path d="M322.859,261.128C338.142,264.499 353.266,264.993 366.707,260.322C384.813,254.031 397.355,234.568 396.336,222.064C394.467,199.114 381.198,197.961 376.474,201.006C366.574,207.387 373.465,225.052 381.841,231.681C392.308,239.965 406.995,240.596 424.53,232.727C446.611,222.818 456.169,190.593 450.287,176.542C445.041,164.014 428.699,162.713 425.388,182.58C421.579,205.436 443.522,222.984 469.403,209.26C483.901,201.571 489.692,181.912 482.984,159.667C478.79,145.761 453.678,114.902 417.803,150.157" style="fill:none;stroke:rgb(216,151,206);stroke-width:16px;"/>
    </g>
</svg>
