<?xml version="1.0" encoding="UTF-8" standalone="no"?>
<!DOCTYPE svg PUBLIC "-//W3C//DTD SVG 1.1//EN" "http://www.w3.org/Graphics/SVG/1.1/DTD/svg11.dtd">
<svg width="100%" height="100%" viewBox="0 0 200 131" version="1.1" xmlns="http://www.w3.org/2000/svg" xmlns:xlink="http://www.w3.org/1999/xlink" xml:space="preserve" xmlns:serif="http://www.serif.com/" style="fill-rule:evenodd;clip-rule:evenodd;stroke-linecap:round;stroke-linejoin:round;stroke-miterlimit:1.5;">
    <g transform="matrix(0.0309909,-0.376194,-0.376194,-0.0309909,197.266,546.271)">
        <path d="M1289.89,410.325C1294.46,433.271 1270.94,463.479 1282.03,486.132C1303.87,530.756 1386.86,511.021 1383.88,570.294C1379.02,666.626 1208.38,644.246 1174.18,540.626C1141.51,441.639 1184.72,390.061 1201.5,375.372C1247.51,335.119 1283.67,379.103 1289.89,410.325Z" style="fill:rgb(219,150,39);"/>
        <clipPath id="_clip1">
            <path d="M1289.89,410.325C1294.46,433.271 1270.94,463.479 1282.03,486.132C1303.87,530.756 1386.86,511.021 1383.88,570.294C1379.02,666.626 1208.38,644.246 1174.18,540.626C1141.51,441.639 1184.72,390.061 1201.5,375.372C1247.51,335.119 1283.67,379.103 1289.89,410.325Z"/>
        </clipPath>
        <g clip-path="url(#_clip1)">
            <g transform="matrix(0.18954,1.04394,-1.04394,0.18954,1546.05,-394.148)">
                <g transform="matrix(1,0,0,1,1.86367,3.6291)">
                    <path d="M856.72,363.518C856.915,364.153 858.347,371.684 867.044,371.641C874.776,371.603 875.727,363.332 875.848,362.552" style="fill:none;stroke:white;stroke-width:8px;"/>
                </g>
                <g transform="matrix(0.681638,0,0,0.681638,276.081,243.634)">
                    <circle cx="854.562" cy="155.33" r="7.791" style="fill:white;"/>
                </g>
                <g transform="matrix(0.681638,0,0,0.681638,295.209,243.634)">
                    <circle cx="854.562" cy="155.33" r="7.791" style="fill:white;"/>
                </g>
            </g>
        </g>
    </g>
    <g transform="matrix(0.969474,0,0,0.947051,-22.7213,-53.5807)">
        <path d="M190.703,72.05C190.703,63.51 183.93,56.576 175.588,56.576L67.283,56.576C58.94,56.576 52.167,63.51 52.167,72.05L52.167,159.924C52.167,168.464 58.94,175.397 67.283,175.397L175.588,175.397C183.93,175.397 190.703,168.464 190.703,159.924L190.703,72.05Z" style="fill:rgb(204,221,255);"/>
        <clipPath id="_clip2">
            <path d="M190.703,72.05C190.703,63.51 183.93,56.576 175.588,56.576L67.283,56.576C58.94,56.576 52.167,63.51 52.167,72.05L52.167,159.924C52.167,168.464 58.94,175.397 67.283,175.397L175.588,175.397C183.93,175.397 190.703,168.464 190.703,159.924L190.703,72.05Z"/>
        </clipPath>
        <g clip-path="url(#_clip2)">
            <g transform="matrix(1,0,0,1.02368,38.2625,35.0641)">
                <rect x="5.414" y="14.654" width="147.027" height="29.174" style="fill:rgb(97,120,225);"/>
            </g>
            <g transform="matrix(1,0,0,1,-14.0362,0)">
                <g transform="matrix(0.705627,0,0,0.722334,69.881,43.3467)">
                    <path d="M61.442,72.094C61.442,68.746 58.724,66.028 55.376,66.028L43.243,66.028C39.895,66.028 37.176,68.746 37.176,72.094L37.176,84.227C37.176,87.575 39.895,90.293 43.243,90.293L55.376,90.293C58.724,90.293 61.442,87.575 61.442,84.227L61.442,72.094Z" style="fill:rgb(164,195,255);"/>
                </g>
                <g transform="matrix(0.705627,0,0,0.722334,100.62,43.3467)">
                    <path d="M61.442,72.094C61.442,68.746 58.724,66.028 55.376,66.028L43.243,66.028C39.895,66.028 37.176,68.746 37.176,72.094L37.176,84.227C37.176,87.575 39.895,90.293 43.243,90.293L55.376,90.293C58.724,90.293 61.442,87.575 61.442,84.227L61.442,72.094Z" style="fill:rgb(164,195,255);"/>
                </g>
                <g transform="matrix(0.705627,0,0,0.722334,131.474,43.3467)">
                    <path d="M61.442,72.094C61.442,68.746 58.724,66.028 55.376,66.028L43.243,66.028C39.895,66.028 37.176,68.746 37.176,72.094L37.176,84.227C37.176,87.575 39.895,90.293 43.243,90.293L55.376,90.293C58.724,90.293 61.442,87.575 61.442,84.227L61.442,72.094Z" style="fill:rgb(164,195,255);"/>
                </g>
            </g>
            <g transform="matrix(1,0,0,1,-14.0362,24.9459)">
                <g transform="matrix(0.705627,0,0,0.722334,69.881,43.3467)">
                    <path d="M61.442,72.094C61.442,68.746 58.724,66.028 55.376,66.028L43.243,66.028C39.895,66.028 37.176,68.746 37.176,72.094L37.176,84.227C37.176,87.575 39.895,90.293 43.243,90.293L55.376,90.293C58.724,90.293 61.442,87.575 61.442,84.227L61.442,72.094Z" style="fill:rgb(164,195,255);"/>
                </g>
                <g transform="matrix(0.705627,0,0,0.722334,100.62,43.3467)">
                    <path d="M61.442,72.094C61.442,68.746 58.724,66.028 55.376,66.028L43.243,66.028C39.895,66.028 37.176,68.746 37.176,72.094L37.176,84.227C37.176,87.575 39.895,90.293 43.243,90.293L55.376,90.293C58.724,90.293 61.442,87.575 61.442,84.227L61.442,72.094Z" style="fill:rgb(164,195,255);"/>
                </g>
                <g transform="matrix(0.705627,0,0,0.722334,131.474,43.3467)">
                    <path d="M61.442,72.094C61.442,68.746 58.724,66.028 55.376,66.028L43.243,66.028C39.895,66.028 37.176,68.746 37.176,72.094L37.176,84.227C37.176,87.575 39.895,90.293 43.243,90.293L55.376,90.293C58.724,90.293 61.442,87.575 61.442,84.227L61.442,72.094Z" style="fill:rgb(164,195,255);"/>
                </g>
            </g>
            <g transform="matrix(1,0,0,1,-14.0362,50.3597)">
                <g transform="matrix(0.705627,0,0,0.722334,69.881,43.3467)">
                    <path d="M61.442,72.094C61.442,68.746 58.724,66.028 55.376,66.028L43.243,66.028C39.895,66.028 37.176,68.746 37.176,72.094L37.176,84.227C37.176,87.575 39.895,90.293 43.243,90.293L55.376,90.293C58.724,90.293 61.442,87.575 61.442,84.227L61.442,72.094Z" style="fill:rgb(164,195,255);"/>
                </g>
                <g transform="matrix(0.705627,0,0,0.722334,100.62,43.3467)">
                    <path d="M61.442,72.094C61.442,68.746 58.724,66.028 55.376,66.028L43.243,66.028C39.895,66.028 37.176,68.746 37.176,72.094L37.176,84.227C37.176,87.575 39.895,90.293 43.243,90.293L55.376,90.293C58.724,90.293 61.442,87.575 61.442,84.227L61.442,72.094Z" style="fill:rgb(164,195,255);"/>
                </g>
                <g transform="matrix(0.705627,0,0,0.722334,131.474,43.3467)">
                    <path d="M61.442,72.094C61.442,68.746 58.724,66.028 55.376,66.028L43.243,66.028C39.895,66.028 37.176,68.746 37.176,72.094L37.176,84.227C37.176,87.575 39.895,90.293 43.243,90.293L55.376,90.293C58.724,90.293 61.442,87.575 61.442,84.227L61.442,72.094Z" style="fill:rgb(164,195,255);"/>
                </g>
            </g>
        </g>
    </g>
    <g transform="matrix(0.778666,0,0,0.778666,24.6008,-17.8012)">
        <circle cx="177.417" cy="144.042" r="46.824" style="fill:rgb(233,114,24);"/>
        <clipPath id="_clip3">
            <circle cx="177.417" cy="144.042" r="46.824"/>
        </clipPath>
        <g clip-path="url(#_clip3)">
            <g transform="matrix(1,0,0,1,22.6384,-16.4352)">
                <circle cx="154.779" cy="160.477" r="39.714" style="fill:rgb(255,243,233);"/>
                <clipPath id="_clip4">
                    <circle cx="154.779" cy="160.477" r="39.714"/>
                </clipPath>
                <g clip-path="url(#_clip4)">
                    <g transform="matrix(1,0,0,1,14.539,24.9965)">
                        <path d="M140.24,135.48L140.24,106.786L140.24,135.48Z" style="fill:none;stroke:rgb(233,114,24);stroke-width:6.85px;"/>
                    </g>
                    <g transform="matrix(1,0,0,1,14.539,24.9965)">
                        <path d="M156.422,122.613L140.24,135.48" style="fill:none;stroke:rgb(233,114,24);stroke-width:6.85px;"/>
                    </g>
                </g>
            </g>
        </g>
    </g>
</svg>
