<?xml version="1.0" encoding="UTF-8" standalone="no"?>
<!DOCTYPE svg PUBLIC "-//W3C//DTD SVG 1.1//EN" "http://www.w3.org/Graphics/SVG/1.1/DTD/svg11.dtd">
<svg width="100%" height="100%" viewBox="0 0 176 155" version="1.1" xmlns="http://www.w3.org/2000/svg" xmlns:xlink="http://www.w3.org/1999/xlink" xml:space="preserve" xmlns:serif="http://www.serif.com/" style="fill-rule:evenodd;clip-rule:evenodd;stroke-linecap:round;stroke-linejoin:round;stroke-miterlimit:1.5;">
    <g transform="matrix(1,0,0,1,-11.4075,-33.3083)">
        <g transform="matrix(1,0,0,1,-11.5767,7.16042)">
            <path d="M177.554,106.03L110.929,63.719L44.303,106.03L44.303,167.881C44.303,175.085 50.152,180.934 57.356,180.934L164.502,180.934C171.706,180.934 177.554,175.085 177.554,167.881L177.554,106.03Z" style="fill:rgb(255,239,189);"/>
            <clipPath id="_clip1">
                <path d="M177.554,106.03L110.929,63.719L44.303,106.03L44.303,167.881C44.303,175.085 50.152,180.934 57.356,180.934L164.502,180.934C171.706,180.934 177.554,175.085 177.554,167.881L177.554,106.03Z"/>
            </clipPath>
            <g clip-path="url(#_clip1)">
                <g transform="matrix(1.72525,0,0,1.42374,-39.4073,-41.7625)">
                    <path d="M99.352,113.159C99.352,110.406 97.508,108.171 95.236,108.171L79.041,108.171C76.77,108.171 74.925,110.406 74.925,113.159L74.925,154.977C74.925,157.73 76.77,159.965 79.041,159.965L95.236,159.965C97.508,159.965 99.352,157.73 99.352,154.977L99.352,113.159Z" style="fill:rgb(233,114,24);"/>
                    <clipPath id="_clip2">
                        <path d="M99.352,113.159C99.352,110.406 97.508,108.171 95.236,108.171L79.041,108.171C76.77,108.171 74.925,110.406 74.925,113.159L74.925,154.977C74.925,157.73 76.77,159.965 79.041,159.965L95.236,159.965C97.508,159.965 99.352,157.73 99.352,154.977L99.352,113.159Z"/>
                    </clipPath>
                    <g clip-path="url(#_clip2)">
                        <g transform="matrix(0.579626,0,0,0.702373,34.0996,36.6631)">
                            <circle cx="104.42" cy="138.68" r="3.096" style="fill:rgb(255,239,189);"/>
                        </g>
                    </g>
                </g>
                <g transform="matrix(1.30528,0,0,0.625926,41.2414,44.5382)">
                    <path d="M99.352,116.754C99.352,112.017 97.508,108.171 95.236,108.171L79.041,108.171C76.77,108.171 74.925,112.017 74.925,116.754L74.925,151.382C74.925,156.119 76.77,159.965 79.041,159.965L95.236,159.965C97.508,159.965 99.352,156.119 99.352,151.382L99.352,116.754Z" style="fill:rgb(255,208,103);"/>
                    <clipPath id="_clip3">
                        <path d="M99.352,116.754C99.352,112.017 97.508,108.171 95.236,108.171L79.041,108.171C76.77,108.171 74.925,112.017 74.925,116.754L74.925,151.382C74.925,156.119 76.77,159.965 79.041,159.965L95.236,159.965C97.508,159.965 99.352,156.119 99.352,151.382L99.352,116.754Z"/>
                    </clipPath>
                    <g clip-path="url(#_clip3)">
                        <g transform="matrix(-0.0196269,-0.284309,0.136336,-0.0409291,36.9263,541.416)">
                            <path d="M1277.26,422.731C1278.32,446.104 1270.37,463.763 1282.03,486.132C1304.83,529.909 1376.68,496.632 1385.27,547.1C1401.43,642.189 1211.15,652.04 1171.73,547.575C1141.28,466.861 1169.14,409.307 1184.94,393.571C1215.59,363.058 1275.43,382.677 1277.26,422.731Z" style="fill:rgb(138,103,201);"/>
                            <clipPath id="_clip4">
                                <path d="M1277.26,422.731C1278.32,446.104 1270.37,463.763 1282.03,486.132C1304.83,529.909 1376.68,496.632 1385.27,547.1C1401.43,642.189 1211.15,652.04 1171.73,547.575C1141.28,466.861 1169.14,409.307 1184.94,393.571C1215.59,363.058 1275.43,382.677 1277.26,422.731Z"/>
                            </clipPath>
                            <g clip-path="url(#_clip4)">
                                <g transform="matrix(0.0458752,1.06002,-1.06002,0.0458752,1670.92,-364.754)">
                                    <g transform="matrix(0.681504,-0.0135255,0.0135255,0.681504,274.142,254.449)">
                                        <circle cx="854.562" cy="155.33" r="7.791" style="fill:white;"/>
                                    </g>
                                    <g transform="matrix(1.16274,0.0552583,-0.0552583,1.16274,-290.259,-229.968)">
                                        <circle cx="1019.71" cy="470.074" r="8.397" style="fill:none;stroke:white;stroke-width:6.48px;"/>
                                    </g>
                                    <g transform="matrix(0.681504,-0.0135255,0.0135255,0.681504,293.267,254.07)">
                                        <circle cx="854.562" cy="155.33" r="7.791" style="fill:white;"/>
                                    </g>
                                </g>
                            </g>
                        </g>
                    </g>
                </g>
            </g>
        </g>
        <g transform="matrix(0.902416,0,0,0.902416,14.2908,21.437)">
            <path d="M11.58,81.648L94.259,27.93L176.938,81.648" style="fill:none;stroke:rgb(233,114,24);stroke-width:29.55px;"/>
        </g>
    </g>
</svg>
