<?xml version="1.0" encoding="UTF-8" standalone="no"?>
<!DOCTYPE svg PUBLIC "-//W3C//DTD SVG 1.1//EN" "http://www.w3.org/Graphics/SVG/1.1/DTD/svg11.dtd">
<svg width="100%" height="100%" viewBox="0 0 196 161" version="1.1" xmlns="http://www.w3.org/2000/svg" xmlns:xlink="http://www.w3.org/1999/xlink" xml:space="preserve" xmlns:serif="http://www.serif.com/" style="fill-rule:evenodd;clip-rule:evenodd;stroke-linecap:round;stroke-linejoin:round;stroke-miterlimit:1.5;">
    <g transform="matrix(-0.0585123,-0.406448,0.406448,-0.0585123,-82.106,596.343)">
        <path d="M1277.26,422.731C1278.32,446.104 1270.37,463.763 1282.03,486.132C1304.83,529.909 1376.68,496.632 1385.27,547.1C1401.43,642.189 1211.15,652.04 1171.73,547.575C1141.28,466.861 1169.14,409.307 1184.94,393.571C1215.59,363.058 1275.43,382.677 1277.26,422.731Z" style="fill:rgb(138,103,201);"/>
        <g>
            <clipPath id="_clip1">
                <path d="M1277.26,422.731C1278.32,446.104 1270.37,463.763 1282.03,486.132C1304.83,529.909 1376.68,496.632 1385.27,547.1C1401.43,642.189 1211.15,652.04 1171.73,547.575C1141.28,466.861 1169.14,409.307 1184.94,393.571C1215.59,363.058 1275.43,382.677 1277.26,422.731Z"/>
            </clipPath>
            <g clip-path="url(#_clip1)">
                <g transform="matrix(0.0458752,1.06002,-1.06002,0.0458752,1670.92,-364.754)">
                    <g transform="matrix(0.681504,-0.0135255,0.0135255,0.681504,274.142,254.449)">
                        <circle cx="854.562" cy="155.33" r="7.791" style="fill:white;"/>
                    </g>
                    <g transform="matrix(1.16274,0.0552583,-0.0552583,1.16274,-290.259,-229.968)">
                        <circle cx="1019.71" cy="470.074" r="8.397" style="fill:none;stroke:white;stroke-width:6.48px;"/>
                    </g>
                    <g transform="matrix(0.681504,-0.0135255,0.0135255,0.681504,293.267,254.07)">
                        <circle cx="854.562" cy="155.33" r="7.791" style="fill:white;"/>
                    </g>
                </g>
            </g>
        </g>
    </g>
    <g transform="matrix(0.751127,-0.450194,0.450194,0.751127,-31.175,-0.597566)">
        <path d="M59.264,73.062C59.264,71.712 58.168,70.617 56.819,70.617L31.574,70.617C30.225,70.617 29.129,71.712 29.129,73.062L29.129,112.548C29.129,113.898 30.225,114.993 31.574,114.993L56.819,114.993C58.168,114.993 59.264,113.898 59.264,112.548L59.264,73.062Z" style="fill:rgb(255,236,220);"/>
        <g>
            <clipPath id="_clip2">
                <path d="M59.264,73.062C59.264,71.712 58.168,70.617 56.819,70.617L31.574,70.617C30.225,70.617 29.129,71.712 29.129,73.062L29.129,112.548C29.129,113.898 30.225,114.993 31.574,114.993L56.819,114.993C58.168,114.993 59.264,113.898 59.264,112.548L59.264,73.062Z"/>
            </clipPath>
            <g clip-path="url(#_clip2)">
                <rect x="24.736" y="70.617" width="37.331" height="4.453" style="fill:rgb(138,103,201);"/>
            </g>
        </g>
    </g>
    <g transform="matrix(-0.307831,-0.455413,-0.455413,0.307831,743.186,528.314)">
        <path d="M1279.33,422.922C1285.48,447.68 1272.61,470.273 1291.46,487.021C1312.36,505.578 1339.08,472.644 1381.67,537.884C1418.03,639.966 1231.76,647.562 1180.79,537.844C1144.44,459.604 1192.15,409.318 1211.25,397.795C1254.96,371.418 1274.13,401.967 1279.33,422.922Z" style="fill:rgb(97,120,225);"/>
        <g>
            <clipPath id="_clip3">
                <path d="M1279.33,422.922C1278.63,455.79 1280.98,465.808 1289.46,489.561C1304.34,531.242 1362.73,484.698 1381.67,537.884C1418.03,639.966 1231.76,647.562 1180.79,537.844C1144.44,459.604 1186.22,400.542 1205.32,389.019C1249.03,362.642 1280.18,382.836 1279.33,422.922Z"/>
            </clipPath>
            <g clip-path="url(#_clip3)">
                <g transform="matrix(1.04592,0.178327,-0.178327,1.04592,489.222,24.8223)">
                    <g transform="matrix(0.681504,-0.0135255,0.0135255,0.681504,274.142,254.449)">
                        <circle cx="854.562" cy="155.33" r="7.791" style="fill:white;"/>
                    </g>
                    <g transform="matrix(1.16274,0.0552583,-0.0552583,1.16274,-290.259,-229.968)">
                        <circle cx="1019.71" cy="470.074" r="8.397" style="fill:none;stroke:white;stroke-width:6.48px;"/>
                    </g>
                    <g transform="matrix(0.681504,-0.0135255,0.0135255,0.681504,293.267,254.07)">
                        <circle cx="854.562" cy="155.33" r="7.791" style="fill:white;"/>
                    </g>
                </g>
            </g>
        </g>
    </g>
    <g transform="matrix(0.57936,-1.08165,1.08165,0.57936,-66.7044,126.934)">
        <path d="M59.264,73.062C59.264,71.712 58.168,70.617 56.819,70.617L31.574,70.617C30.225,70.617 29.129,71.712 29.129,73.062L29.129,112.548C29.129,113.898 30.225,114.993 31.574,114.993L56.819,114.993C58.168,114.993 59.264,113.898 59.264,112.548L59.264,73.062Z" style="fill:rgb(255,236,220);"/>
        <g>
            <clipPath id="_clip4">
                <path d="M59.264,73.062C59.264,71.712 58.168,70.617 56.819,70.617L31.574,70.617C30.225,70.617 29.129,71.712 29.129,73.062L29.129,112.548C29.129,113.898 30.225,114.993 31.574,114.993L56.819,114.993C58.168,114.993 59.264,113.898 59.264,112.548L59.264,73.062Z"/>
            </clipPath>
            <g clip-path="url(#_clip4)">
                <rect x="24.736" y="70.617" width="37.331" height="4.453" style="fill:rgb(97,120,225);"/>
            </g>
        </g>
    </g>
</svg>
