<?xml version="1.0" encoding="UTF-8" standalone="no"?>
<!DOCTYPE svg PUBLIC "-//W3C//DTD SVG 1.1//EN" "http://www.w3.org/Graphics/SVG/1.1/DTD/svg11.dtd">
<svg width="100%" height="100%" viewBox="0 0 277 277" version="1.1" xmlns="http://www.w3.org/2000/svg" xmlns:xlink="http://www.w3.org/1999/xlink" xml:space="preserve" xmlns:serif="http://www.serif.com/" style="fill-rule:evenodd;clip-rule:evenodd;stroke-linecap:round;stroke-linejoin:round;stroke-miterlimit:1.5;">
    <g transform="matrix(1,0,0,1,-763.587,-209.771)">
        <rect x="763.587" y="209.771" width="276.36" height="276.36" style="fill:rgb(138,103,201);"/>
        <clipPath id="_clip1">
            <rect x="763.587" y="209.771" width="276.36" height="276.36"/>
        </clipPath>
        <g clip-path="url(#_clip1)">
            <g transform="matrix(1.07631,0.183521,-0.183521,1.07631,-558.117,-39.8099)">
                <path d="M1415.25,93.776C1394.67,96.401 1381.14,68.144 1340.33,70.83C1320.32,72.147 1293.64,103.408 1296,126.194C1299.95,164.24 1365.64,223.271 1469.86,199.772C1505.49,191.738 1542.03,151.556 1553.34,108.839C1569.38,48.237 1543.9,27.589 1528.64,17.495C1515.01,8.482 1493.49,13.823 1479.93,22.942C1461.03,35.655 1454.29,88.794 1415.25,93.776Z" style="fill:rgb(223,189,36);"/>
                <clipPath id="_clip2">
                    <path d="M1415.25,93.776C1394.67,96.401 1381.14,68.144 1340.33,70.83C1320.32,72.147 1293.64,103.408 1296,126.194C1299.95,164.24 1365.64,223.271 1469.86,199.772C1505.49,191.738 1542.03,151.556 1553.34,108.839C1569.38,48.237 1543.9,27.589 1528.64,17.495C1515.01,8.482 1493.49,13.823 1479.93,22.942C1461.03,35.655 1454.29,88.794 1415.25,93.776Z"/>
                </clipPath>
                <g clip-path="url(#_clip2)">
                    <g transform="matrix(0.902848,-0.153943,0.153943,0.902848,506.697,-66.3003)">
                        <g transform="matrix(1,0,0,1,1.86367,3.6291)">
                            <path d="M856.72,363.518C856.915,364.153 858.347,371.684 867.044,371.641C874.776,371.603 875.727,363.332 875.848,362.552" style="fill:none;stroke:white;stroke-width:8px;"/>
                        </g>
                        <g transform="matrix(0.681638,0,0,0.681638,276.081,243.634)">
                            <circle cx="854.562" cy="155.33" r="7.791" style="fill:white;"/>
                        </g>
                        <g transform="matrix(0.681638,0,0,0.681638,295.209,243.634)">
                            <circle cx="854.562" cy="155.33" r="7.791" style="fill:white;"/>
                        </g>
                    </g>
                </g>
            </g>
        </g>
    </g>
</svg>
