<?xml version="1.0" encoding="UTF-8" standalone="no"?>
<!DOCTYPE svg PUBLIC "-//W3C//DTD SVG 1.1//EN" "http://www.w3.org/Graphics/SVG/1.1/DTD/svg11.dtd">
<svg width="100%" height="100%" viewBox="0 0 148 139" version="1.1" xmlns="http://www.w3.org/2000/svg" xmlns:xlink="http://www.w3.org/1999/xlink" xml:space="preserve" xmlns:serif="http://www.serif.com/" style="fill-rule:evenodd;clip-rule:evenodd;stroke-linecap:round;stroke-linejoin:round;stroke-miterlimit:1.5;">
    <g transform="matrix(1,0,0,1,-30.8779,-3.47154)">
        <path d="M77.799,142.175C82.712,129.688 89.267,120.056 86.958,104.794C81.647,69.703 28.831,95.727 30.939,39.267C33.528,-30.035 164.115,9.348 176.296,88.699C179.77,111.33 178.88,128.719 175.486,142.175L77.799,142.175Z" style="fill:rgb(97,120,225);"/>
        <clipPath id="_clip1">
            <path d="M77.799,142.175C82.712,129.688 89.267,120.056 86.958,104.794C81.647,69.703 28.831,95.727 30.939,39.267C33.528,-30.035 164.115,9.348 176.296,88.699C179.77,111.33 178.88,128.719 175.486,142.175L77.799,142.175Z"/>
        </clipPath>
        <g clip-path="url(#_clip1)">
            <g transform="matrix(0.66707,-0.268295,0.268295,0.66707,-610.248,32.3739)">
                <g transform="matrix(1,0,0,1,1.86367,3.6291)">
                    <path d="M856.72,363.518C856.915,364.153 858.347,371.684 867.044,371.641C874.776,371.603 875.727,363.332 875.848,362.552" style="fill:none;stroke:white;stroke-width:8px;"/>
                </g>
                <g transform="matrix(0.681638,0,0,0.681638,276.081,243.634)">
                    <circle cx="854.562" cy="155.33" r="7.791" style="fill:white;"/>
                </g>
                <g transform="matrix(0.681638,0,0,0.681638,295.209,243.634)">
                    <circle cx="854.562" cy="155.33" r="7.791" style="fill:white;"/>
                </g>
            </g>
            <path d="M130.241,16.662L110.371,82.631L63.131,92.149C63.131,92.149 73.21,109.265 73.821,121.443C74.548,135.929 38.039,151.301 38.803,163.55C39.378,172.769 90.117,203.498 99.352,203.717C116.161,204.116 153.735,200.216 168.345,181.46C182.956,162.704 184.856,108.918 178.505,81.451C172.438,55.213 130.241,16.662 130.241,16.662Z" style="fill:rgb(216,187,43);"/>
        </g>
        <path d="M110.371,82.631L73.821,86.661L73.821,99.352L110.371,82.631C110.371,82.631 115.251,72.131 126.799,42.749C130.504,33.322 148.731,21.719 148.731,21.719L119.823,16.638L110.371,82.631Z" style="fill:rgb(255,230,209);"/>
        <g transform="matrix(1,0,0,1,1.31577,0.260359)">
            <path d="M108.186,86.196C108.186,86.196 109.473,95.953 109.96,104.626C110.494,114.144 104.67,129.031 104.67,129.031L113.29,134.529L119.71,127.893C119.71,127.893 120.32,115.702 118.628,103.449C117.222,93.27 111.683,81.63 111.683,81.63L108.186,86.196Z" style="fill:rgb(10,161,93);"/>
        </g>
        <g transform="matrix(1,0,0,1,-0.0213854,-2.16316)">
            <ellipse cx="110.392" cy="85.68" rx="5.701" ry="5.095" style="fill:rgb(10,161,93);"/>
        </g>
    </g>
</svg>
