<?xml version="1.0" encoding="UTF-8" standalone="no"?>
<!DOCTYPE svg PUBLIC "-//W3C//DTD SVG 1.1//EN" "http://www.w3.org/Graphics/SVG/1.1/DTD/svg11.dtd">
<svg width="100%" height="100%" viewBox="0 0 277 277" version="1.1" xmlns="http://www.w3.org/2000/svg" xmlns:xlink="http://www.w3.org/1999/xlink" xml:space="preserve" xmlns:serif="http://www.serif.com/" style="fill-rule:evenodd;clip-rule:evenodd;stroke-linecap:round;stroke-linejoin:round;stroke-miterlimit:1.5;">
    <g transform="matrix(1,0,0,1,-763.587,-209.771)">
        <rect x="763.587" y="209.771" width="276.36" height="276.36" style="fill:rgb(97,120,225);"/>
        <clipPath id="_clip1">
            <rect x="763.587" y="209.771" width="276.36" height="276.36"/>
        </clipPath>
        <g clip-path="url(#_clip1)">
            <g transform="matrix(1,0,0,1,-371.352,-186.39)">
                <path d="M1289.89,410.325C1294.46,433.271 1270.94,463.479 1282.03,486.132C1303.87,530.756 1386.86,511.021 1383.88,570.294C1379.02,666.626 1208.38,644.246 1174.18,540.626C1141.51,441.639 1184.72,390.061 1201.5,375.372C1247.51,335.119 1283.67,379.103 1289.89,410.325Z" style="fill:rgb(233,114,24);"/>
                <clipPath id="_clip2">
                    <path d="M1289.89,410.325C1294.46,433.271 1270.94,463.479 1282.03,486.132C1303.87,530.756 1386.86,511.021 1383.88,570.294C1379.02,666.626 1208.38,644.246 1174.18,540.626C1141.51,441.639 1184.72,390.061 1201.5,375.372C1247.51,335.119 1283.67,379.103 1289.89,410.325Z"/>
                </clipPath>
                <g clip-path="url(#_clip2)">
                    <g transform="matrix(0.709452,0.788937,-0.788937,0.709452,997.321,-368.128)">
                        <g transform="matrix(1,0,0,1,1.86367,3.6291)">
                            <path d="M856.72,363.518C856.915,364.153 858.347,371.684 867.044,371.641C874.776,371.603 875.727,363.332 875.848,362.552" style="fill:none;stroke:white;stroke-width:8px;"/>
                        </g>
                        <g transform="matrix(0.681638,0,0,0.681638,276.081,243.634)">
                            <circle cx="854.562" cy="155.33" r="7.791" style="fill:white;"/>
                        </g>
                        <g transform="matrix(0.681638,0,0,0.681638,295.209,243.634)">
                            <circle cx="854.562" cy="155.33" r="7.791" style="fill:white;"/>
                        </g>
                    </g>
                </g>
            </g>
        </g>
    </g>
</svg>
