<?xml version="1.0" encoding="UTF-8" standalone="no"?>
<!DOCTYPE svg PUBLIC "-//W3C//DTD SVG 1.1//EN" "http://www.w3.org/Graphics/SVG/1.1/DTD/svg11.dtd">
<svg width="100%" height="100%" viewBox="0 0 199 199" version="1.1" xmlns="http://www.w3.org/2000/svg" xmlns:xlink="http://www.w3.org/1999/xlink" xml:space="preserve" xmlns:serif="http://www.serif.com/" style="fill-rule:evenodd;clip-rule:evenodd;stroke-linecap:round;stroke-linejoin:round;stroke-miterlimit:1.5;">
    <g transform="matrix(0.719002,0,0,0.719002,-549.021,-150.826)">
        <rect x="763.587" y="209.771" width="276.36" height="276.36" style="fill:rgb(233,114,24);"/>
        <clipPath id="_clip1">
            <rect x="763.587" y="209.771" width="276.36" height="276.36"/>
        </clipPath>
        <g clip-path="url(#_clip1)">
            <g transform="matrix(-0.903064,0.613684,0.613684,0.903064,2087.39,-617.071)">
                <path d="M1415.25,93.776C1394.67,96.401 1373.85,70.901 1333.04,73.588C1313.03,74.905 1287.67,97.57 1292.22,120.021C1301.67,166.56 1359.8,228.557 1455.75,198.019C1490.55,186.941 1544.88,152.489 1553.06,100.321C1562.76,38.387 1543.9,27.589 1528.64,17.495C1515.01,8.482 1493.49,13.823 1479.93,22.942C1461.03,35.655 1454.29,88.794 1415.25,93.776Z" style="fill:rgb(216,187,43);"/>
                <clipPath id="_clip2">
                    <path d="M1415.25,93.776C1394.67,96.401 1373.85,70.901 1333.04,73.588C1313.03,74.905 1287.67,97.57 1292.22,120.021C1301.67,166.56 1359.8,228.557 1455.75,198.019C1490.55,186.941 1544.88,152.489 1553.06,100.321C1562.76,38.387 1543.9,27.589 1528.64,17.495C1515.01,8.482 1493.49,13.823 1479.93,22.942C1461.03,35.655 1454.29,88.794 1415.25,93.776Z"/>
                </clipPath>
                <g clip-path="url(#_clip2)">
                    <g transform="matrix(-0.890968,0.387927,0.387927,0.890968,1973.36,-532.882)">
                        <g transform="matrix(0.681504,-0.0135255,0.0135255,0.681504,274.142,254.449)">
                            <circle cx="854.562" cy="155.33" r="7.791" style="fill:white;"/>
                        </g>
                        <g transform="matrix(1.16274,0.0552583,-0.0552583,1.16274,-290.259,-229.968)">
                            <circle cx="1019.71" cy="470.074" r="8.397" style="fill:none;stroke:white;stroke-width:6.48px;"/>
                        </g>
                        <g transform="matrix(0.681504,-0.0135255,0.0135255,0.681504,293.267,254.07)">
                            <circle cx="854.562" cy="155.33" r="7.791" style="fill:white;"/>
                        </g>
                    </g>
                </g>
            </g>
        </g>
    </g>
</svg>
